<svg width="409" height="317" viewBox="0 0 409 317" fill="none" xmlns="http://www.w3.org/2000/svg">
<rect width="409" height="317" fill="#F3F4F6"/>
<path d="M153.148 71.6055V67.8555C153.828 68.4258 154.566 68.8555 155.363 69.1445C156.16 69.4258 156.965 69.5664 157.777 69.5664C158.254 69.5664 158.668 69.5234 159.02 69.4375C159.379 69.3516 159.676 69.2344 159.91 69.0859C160.152 68.9297 160.332 68.75 160.449 68.5469C160.566 68.3359 160.625 68.1094 160.625 67.8672C160.625 67.5391 160.531 67.2461 160.344 66.9883C160.156 66.7305 159.898 66.4922 159.57 66.2734C159.25 66.0547 158.867 65.8438 158.422 65.6406C157.977 65.4375 157.496 65.2305 156.98 65.0195C155.668 64.4727 154.688 63.8047 154.039 63.0156C153.398 62.2266 153.078 61.2734 153.078 60.1562C153.078 59.2812 153.254 58.5312 153.605 57.9062C153.957 57.2734 154.434 56.7539 155.035 56.3477C155.645 55.9414 156.348 55.6445 157.145 55.457C157.941 55.2617 158.785 55.1641 159.676 55.1641C160.551 55.1641 161.324 55.2188 161.996 55.3281C162.676 55.4297 163.301 55.5898 163.871 55.8086V59.3125C163.59 59.1172 163.281 58.9453 162.945 58.7969C162.617 58.6484 162.277 58.5273 161.926 58.4336C161.574 58.332 161.223 58.2578 160.871 58.2109C160.527 58.1641 160.199 58.1406 159.887 58.1406C159.457 58.1406 159.066 58.1836 158.715 58.2695C158.363 58.3477 158.066 58.4609 157.824 58.6094C157.582 58.7578 157.395 58.9375 157.262 59.1484C157.129 59.3516 157.062 59.582 157.062 59.8398C157.062 60.1211 157.137 60.375 157.285 60.6016C157.434 60.8203 157.645 61.0312 157.918 61.2344C158.191 61.4297 158.523 61.625 158.914 61.8203C159.305 62.0078 159.746 62.2031 160.238 62.4062C160.91 62.6875 161.512 62.9883 162.043 63.3086C162.582 63.6211 163.043 63.9766 163.426 64.375C163.809 64.7734 164.102 65.2305 164.305 65.7461C164.508 66.2539 164.609 66.8477 164.609 67.5273C164.609 68.4648 164.43 69.2539 164.07 69.8945C163.719 70.5273 163.238 71.043 162.629 71.4414C162.02 71.832 161.309 72.1133 160.496 72.2852C159.691 72.457 158.84 72.543 157.941 72.543C157.02 72.543 156.141 72.4648 155.305 72.3086C154.477 72.1523 153.758 71.918 153.148 71.6055ZM176.105 71.8164C175.27 72.3008 174.062 72.543 172.484 72.543C170.641 72.543 169.148 71.9844 168.008 70.8672C166.867 69.75 166.297 68.3086 166.297 66.543C166.297 64.5039 166.906 62.8984 168.125 61.7266C169.352 60.5469 170.988 59.957 173.035 59.957C174.449 59.957 175.473 60.1445 176.105 60.5195V63.6602C175.332 63.082 174.469 62.793 173.516 62.793C172.453 62.793 171.609 63.1055 170.984 63.7305C170.367 64.3477 170.059 65.2031 170.059 66.2969C170.059 67.3594 170.355 68.1953 170.949 68.8047C171.543 69.4062 172.359 69.707 173.398 69.707C174.32 69.707 175.223 69.418 176.105 68.8398V71.8164ZM186.371 63.5898C185.926 63.3477 185.406 63.2266 184.812 63.2266C184.008 63.2266 183.379 63.5234 182.926 64.1172C182.473 64.7031 182.246 65.5039 182.246 66.5195V72.25H178.543V60.25H182.246V62.4766H182.293C182.879 60.8516 183.934 60.0391 185.457 60.0391C185.848 60.0391 186.152 60.0859 186.371 60.1797V63.5898ZM198.09 72.25H194.586V70.5273H194.539C193.734 71.8711 192.543 72.543 190.965 72.543C189.801 72.543 188.883 72.2148 188.211 71.5586C187.547 70.8945 187.215 70.0117 187.215 68.9102C187.215 66.582 188.594 65.2383 191.352 64.8789L194.609 64.4453C194.609 63.1328 193.898 62.4766 192.477 62.4766C191.047 62.4766 189.688 62.9023 188.398 63.7539V60.9648C188.914 60.6992 189.617 60.4648 190.508 60.2617C191.406 60.0586 192.223 59.957 192.957 59.957C196.379 59.957 198.09 61.6641 198.09 65.0781V72.25ZM194.609 67.375V66.5664L192.43 66.8477C191.227 67.0039 190.625 67.5469 190.625 68.4766C190.625 68.8984 190.77 69.2461 191.059 69.5195C191.355 69.7852 191.754 69.918 192.254 69.918C192.949 69.918 193.516 69.6797 193.953 69.2031C194.391 68.7188 194.609 68.1094 194.609 67.375ZM220.074 72.25H216.383V65.4062C216.383 63.6641 215.742 62.793 214.461 62.793C213.852 62.793 213.355 63.0547 212.973 63.5781C212.59 64.1016 212.398 64.7539 212.398 65.5352V72.25H208.695V65.3359C208.695 63.6406 208.066 62.793 206.809 62.793C206.176 62.793 205.668 63.043 205.285 63.543C204.91 64.043 204.723 64.7227 204.723 65.582V72.25H201.02V60.25H204.723V62.125H204.77C205.152 61.4844 205.688 60.9648 206.375 60.5664C207.07 60.1602 207.828 59.957 208.648 59.957C210.344 59.957 211.504 60.7031 212.129 62.1953C213.043 60.7031 214.387 59.957 216.16 59.957C218.77 59.957 220.074 61.5664 220.074 64.7852V72.25ZM226.754 70.8555H226.707V72.25H223.004V54.4844H226.707V62.0547H226.754C227.668 60.6562 228.969 59.957 230.656 59.957C232.203 59.957 233.395 60.4883 234.23 61.5508C235.066 62.6133 235.484 64.0664 235.484 65.9102C235.484 67.9102 234.996 69.5156 234.02 70.7266C233.043 71.9375 231.738 72.543 230.105 72.543C228.629 72.543 227.512 71.9805 226.754 70.8555ZM226.648 65.793V67.0234C226.648 67.7969 226.871 68.4375 227.316 68.9453C227.762 69.4531 228.332 69.707 229.027 69.707C229.871 69.707 230.523 69.3828 230.984 68.7344C231.453 68.0781 231.688 67.1523 231.688 65.957C231.688 64.9648 231.473 64.1914 231.043 63.6367C230.621 63.0742 230.016 62.793 229.227 62.793C228.484 62.793 227.867 63.0703 227.375 63.625C226.891 64.1797 226.648 64.9023 226.648 65.793ZM241.59 72.25H237.887V54.4844H241.59V72.25ZM255.488 67.3047H247.66C247.785 69.0469 248.883 69.918 250.953 69.918C252.273 69.918 253.434 69.6055 254.434 68.9805V71.6523C253.324 72.2461 251.883 72.543 250.109 72.543C248.172 72.543 246.668 72.0078 245.598 70.9375C244.527 69.8594 243.992 68.3594 243.992 66.4375C243.992 64.4453 244.57 62.8672 245.727 61.7031C246.883 60.5391 248.305 59.957 249.992 59.957C251.742 59.957 253.094 60.4766 254.047 61.5156C255.008 62.5547 255.488 63.9648 255.488 65.7461V67.3047ZM252.055 65.0312C252.055 63.3125 251.359 62.4531 249.969 62.4531C249.375 62.4531 248.859 62.6992 248.422 63.1914C247.992 63.6836 247.73 64.2969 247.637 65.0312H252.055Z" fill="black"/>
<path d="M115.063 114.74V113C115.263 113.176 115.5 113.334 115.775 113.475C116.057 113.615 116.35 113.735 116.654 113.835C116.965 113.929 117.275 114.002 117.586 114.055C117.896 114.107 118.184 114.134 118.447 114.134C119.355 114.134 120.032 113.967 120.478 113.633C120.929 113.293 121.154 112.807 121.154 112.174C121.154 111.834 121.078 111.538 120.926 111.286C120.779 111.034 120.574 110.806 120.311 110.601C120.047 110.39 119.733 110.19 119.37 110.003C119.013 109.81 118.626 109.607 118.21 109.396C117.771 109.174 117.36 108.948 116.979 108.72C116.599 108.491 116.268 108.239 115.986 107.964C115.705 107.688 115.482 107.378 115.318 107.032C115.16 106.681 115.081 106.271 115.081 105.802C115.081 105.228 115.207 104.729 115.459 104.308C115.711 103.88 116.042 103.528 116.452 103.253C116.862 102.978 117.328 102.772 117.85 102.638C118.377 102.503 118.913 102.436 119.458 102.436C120.7 102.436 121.605 102.585 122.174 102.884V104.545C121.43 104.029 120.475 103.771 119.309 103.771C118.986 103.771 118.664 103.807 118.342 103.877C118.02 103.941 117.732 104.05 117.48 104.202C117.229 104.354 117.023 104.551 116.865 104.791C116.707 105.031 116.628 105.324 116.628 105.67C116.628 105.992 116.687 106.271 116.804 106.505C116.927 106.739 117.105 106.953 117.34 107.146C117.574 107.34 117.858 107.527 118.192 107.709C118.532 107.891 118.922 108.09 119.361 108.307C119.812 108.529 120.24 108.764 120.645 109.01C121.049 109.256 121.403 109.528 121.708 109.827C122.013 110.126 122.253 110.457 122.429 110.82C122.61 111.184 122.701 111.6 122.701 112.068C122.701 112.689 122.578 113.217 122.332 113.65C122.092 114.078 121.764 114.427 121.348 114.696C120.938 114.966 120.463 115.159 119.924 115.276C119.385 115.399 118.816 115.461 118.219 115.461C118.02 115.461 117.773 115.443 117.48 115.408C117.188 115.379 116.889 115.332 116.584 115.268C116.279 115.209 115.989 115.136 115.714 115.048C115.444 114.954 115.228 114.852 115.063 114.74ZM131.156 114.837C130.465 115.253 129.645 115.461 128.695 115.461C127.412 115.461 126.375 115.045 125.584 114.213C124.799 113.375 124.406 112.291 124.406 110.961C124.406 109.479 124.831 108.289 125.681 107.393C126.53 106.49 127.664 106.039 129.082 106.039C129.873 106.039 130.57 106.186 131.174 106.479V107.955C130.506 107.486 129.791 107.252 129.029 107.252C128.109 107.252 127.354 107.583 126.762 108.245C126.176 108.901 125.883 109.766 125.883 110.838C125.883 111.893 126.158 112.725 126.709 113.334C127.266 113.943 128.01 114.248 128.941 114.248C129.727 114.248 130.465 113.987 131.156 113.466V114.837ZM138.029 107.709C137.777 107.516 137.414 107.419 136.939 107.419C136.324 107.419 135.809 107.709 135.393 108.289C134.982 108.869 134.777 109.66 134.777 110.662V115.25H133.336V106.25H134.777V108.104H134.812C135.018 107.472 135.331 106.979 135.753 106.628C136.175 106.271 136.646 106.092 137.168 106.092C137.543 106.092 137.83 106.133 138.029 106.215V107.709ZM146.036 115.25H144.595V113.844H144.56C143.933 114.922 143.01 115.461 141.791 115.461C140.895 115.461 140.191 115.224 139.682 114.749C139.178 114.274 138.926 113.645 138.926 112.859C138.926 111.178 139.916 110.199 141.896 109.924L144.595 109.546C144.595 108.017 143.977 107.252 142.74 107.252C141.656 107.252 140.678 107.621 139.805 108.359V106.883C140.689 106.32 141.709 106.039 142.863 106.039C144.979 106.039 146.036 107.158 146.036 109.396V115.25ZM144.595 110.697L142.424 110.996C141.756 111.09 141.252 111.257 140.912 111.497C140.572 111.731 140.402 112.15 140.402 112.754C140.402 113.193 140.558 113.554 140.868 113.835C141.185 114.11 141.604 114.248 142.125 114.248C142.84 114.248 143.429 113.999 143.892 113.501C144.36 112.997 144.595 112.361 144.595 111.594V110.697ZM161.531 115.25H160.09V110.082C160.09 109.086 159.935 108.365 159.624 107.92C159.319 107.475 158.804 107.252 158.077 107.252C157.462 107.252 156.938 107.533 156.504 108.096C156.076 108.658 155.862 109.332 155.862 110.117V115.25H154.421V109.906C154.421 108.137 153.738 107.252 152.373 107.252C151.74 107.252 151.219 107.519 150.809 108.052C150.398 108.579 150.193 109.268 150.193 110.117V115.25H148.752V106.25H150.193V107.674H150.229C150.867 106.584 151.799 106.039 153.023 106.039C153.639 106.039 154.175 106.212 154.632 106.558C155.089 106.897 155.402 107.346 155.572 107.902C156.24 106.66 157.236 106.039 158.561 106.039C160.541 106.039 161.531 107.261 161.531 109.704V115.25ZM165.732 113.949H165.697V115.25H164.256V101.926H165.697V107.832H165.732C166.441 106.637 167.479 106.039 168.844 106.039C169.998 106.039 170.9 106.443 171.551 107.252C172.207 108.055 172.535 109.133 172.535 110.486C172.535 111.992 172.169 113.199 171.437 114.107C170.704 115.01 169.702 115.461 168.431 115.461C167.241 115.461 166.342 114.957 165.732 113.949ZM165.697 110.319V111.576C165.697 112.32 165.938 112.953 166.418 113.475C166.904 113.99 167.52 114.248 168.264 114.248C169.137 114.248 169.819 113.914 170.312 113.246C170.81 112.578 171.059 111.649 171.059 110.46C171.059 109.458 170.827 108.673 170.364 108.104C169.901 107.536 169.274 107.252 168.483 107.252C167.646 107.252 166.972 107.545 166.462 108.131C165.952 108.711 165.697 109.44 165.697 110.319ZM176.279 115.25H174.838V101.926H176.279V115.25ZM186.431 111.11H180.076C180.1 112.112 180.369 112.886 180.885 113.431C181.4 113.976 182.109 114.248 183.012 114.248C184.025 114.248 184.957 113.914 185.807 113.246V114.6C185.016 115.174 183.97 115.461 182.669 115.461C181.397 115.461 180.398 115.054 179.672 114.239C178.945 113.419 178.582 112.268 178.582 110.785C178.582 109.385 178.978 108.245 179.769 107.366C180.565 106.481 181.553 106.039 182.73 106.039C183.908 106.039 184.819 106.42 185.464 107.182C186.108 107.943 186.431 109.001 186.431 110.354V111.11ZM184.954 109.889C184.948 109.057 184.746 108.409 184.348 107.946C183.955 107.483 183.407 107.252 182.704 107.252C182.024 107.252 181.447 107.495 180.973 107.981C180.498 108.468 180.205 109.104 180.094 109.889H184.954ZM196.301 115.25H194.859V113.721H194.824C194.156 114.881 193.125 115.461 191.73 115.461C190.6 115.461 189.694 115.06 189.015 114.257C188.341 113.448 188.004 112.35 188.004 110.961C188.004 109.473 188.379 108.28 189.129 107.384C189.879 106.487 190.878 106.039 192.126 106.039C193.362 106.039 194.262 106.525 194.824 107.498H194.859V101.926H196.301V115.25ZM194.859 111.181V109.854C194.859 109.127 194.619 108.512 194.139 108.008C193.658 107.504 193.049 107.252 192.311 107.252C191.432 107.252 190.74 107.574 190.236 108.219C189.732 108.863 189.48 109.754 189.48 110.891C189.48 111.928 189.721 112.748 190.201 113.352C190.688 113.949 191.338 114.248 192.152 114.248C192.955 114.248 193.605 113.958 194.104 113.378C194.607 112.798 194.859 112.065 194.859 111.181ZM219.293 102.646L215.733 115.25H214.002L211.409 106.039C211.298 105.646 211.23 105.219 211.207 104.756H211.172C211.137 105.189 211.061 105.611 210.943 106.021L208.333 115.25H206.619L202.928 102.646H204.554L207.234 112.314C207.346 112.719 207.416 113.141 207.445 113.58H207.489C207.519 113.27 207.609 112.848 207.762 112.314L210.548 102.646H211.963L214.635 112.385C214.729 112.719 214.799 113.111 214.846 113.562H214.881C214.904 113.258 214.983 112.854 215.118 112.35L217.693 102.646H219.293ZM224.039 115.461C222.709 115.461 221.646 115.042 220.849 114.204C220.058 113.36 219.662 112.244 219.662 110.855C219.662 109.344 220.075 108.163 220.901 107.313C221.728 106.464 222.844 106.039 224.25 106.039C225.592 106.039 226.638 106.452 227.388 107.278C228.144 108.104 228.521 109.25 228.521 110.715C228.521 112.15 228.114 113.302 227.3 114.169C226.491 115.03 225.404 115.461 224.039 115.461ZM224.145 107.252C223.219 107.252 222.486 107.568 221.947 108.201C221.408 108.828 221.139 109.695 221.139 110.803C221.139 111.869 221.411 112.71 221.956 113.325C222.501 113.94 223.23 114.248 224.145 114.248C225.076 114.248 225.791 113.946 226.289 113.343C226.793 112.739 227.045 111.881 227.045 110.768C227.045 109.643 226.793 108.775 226.289 108.166C225.791 107.557 225.076 107.252 224.145 107.252ZM235.518 107.709C235.266 107.516 234.902 107.419 234.428 107.419C233.812 107.419 233.297 107.709 232.881 108.289C232.471 108.869 232.266 109.66 232.266 110.662V115.25H230.824V106.25H232.266V108.104H232.301C232.506 107.472 232.819 106.979 233.241 106.628C233.663 106.271 234.135 106.092 234.656 106.092C235.031 106.092 235.318 106.133 235.518 106.215V107.709ZM244.764 115.25H243.322V113.721H243.287C242.619 114.881 241.588 115.461 240.193 115.461C239.062 115.461 238.157 115.06 237.478 114.257C236.804 113.448 236.467 112.35 236.467 110.961C236.467 109.473 236.842 108.28 237.592 107.384C238.342 106.487 239.341 106.039 240.589 106.039C241.825 106.039 242.725 106.525 243.287 107.498H243.322V101.926H244.764V115.25ZM243.322 111.181V109.854C243.322 109.127 243.082 108.512 242.602 108.008C242.121 107.504 241.512 107.252 240.773 107.252C239.895 107.252 239.203 107.574 238.699 108.219C238.195 108.863 237.943 109.754 237.943 110.891C237.943 111.928 238.184 112.748 238.664 113.352C239.15 113.949 239.801 114.248 240.615 114.248C241.418 114.248 242.068 113.958 242.566 113.378C243.07 112.798 243.322 112.065 243.322 111.181ZM248.183 108.008C247.913 108.008 247.682 107.911 247.488 107.718C247.301 107.524 247.207 107.293 247.207 107.023C247.207 106.754 247.301 106.525 247.488 106.338C247.682 106.15 247.913 106.057 248.183 106.057C248.458 106.057 248.692 106.15 248.886 106.338C249.079 106.525 249.176 106.754 249.176 107.023C249.176 107.293 249.079 107.524 248.886 107.718C248.692 107.911 248.458 108.008 248.183 108.008ZM248.183 115.443C247.913 115.443 247.682 115.347 247.488 115.153C247.301 114.96 247.207 114.729 247.207 114.459C247.207 114.189 247.301 113.958 247.488 113.765C247.682 113.565 247.913 113.466 248.183 113.466C248.458 113.466 248.692 113.565 248.886 113.765C249.079 113.958 249.176 114.189 249.176 114.459C249.176 114.729 249.079 114.96 248.886 115.153C248.692 115.347 248.458 115.443 248.183 115.443ZM261.217 107.709C260.965 107.516 260.602 107.419 260.127 107.419C259.512 107.419 258.996 107.709 258.58 108.289C258.17 108.869 257.965 109.66 257.965 110.662V115.25H256.523V106.25H257.965V108.104H258C258.205 107.472 258.519 106.979 258.94 106.628C259.362 106.271 259.834 106.092 260.355 106.092C260.73 106.092 261.018 106.133 261.217 106.215V107.709ZM266.956 115.162C266.616 115.35 266.168 115.443 265.611 115.443C264.035 115.443 263.247 114.564 263.247 112.807V107.48H261.7V106.25H263.247V104.053L264.688 103.587V106.25H266.956V107.48H264.688V112.552C264.688 113.155 264.791 113.586 264.996 113.844C265.201 114.102 265.541 114.23 266.016 114.23C266.379 114.23 266.692 114.131 266.956 113.932V115.162ZM275.323 115.25H273.882V113.844H273.847C273.22 114.922 272.297 115.461 271.078 115.461C270.182 115.461 269.479 115.224 268.969 114.749C268.465 114.274 268.213 113.645 268.213 112.859C268.213 111.178 269.203 110.199 271.184 109.924L273.882 109.546C273.882 108.017 273.264 107.252 272.027 107.252C270.943 107.252 269.965 107.621 269.092 108.359V106.883C269.977 106.32 270.996 106.039 272.15 106.039C274.266 106.039 275.323 107.158 275.323 109.396V115.25ZM273.882 110.697L271.711 110.996C271.043 111.09 270.539 111.257 270.199 111.497C269.859 111.731 269.689 112.15 269.689 112.754C269.689 113.193 269.845 113.554 270.155 113.835C270.472 114.11 270.891 114.248 271.412 114.248C272.127 114.248 272.716 113.999 273.179 113.501C273.647 112.997 273.882 112.361 273.882 111.594V110.697ZM285.272 111.11H278.918C278.941 112.112 279.211 112.886 279.727 113.431C280.242 113.976 280.951 114.248 281.854 114.248C282.867 114.248 283.799 113.914 284.648 113.246V114.6C283.857 115.174 282.812 115.461 281.511 115.461C280.239 115.461 279.24 115.054 278.514 114.239C277.787 113.419 277.424 112.268 277.424 110.785C277.424 109.385 277.819 108.245 278.61 107.366C279.407 106.481 280.395 106.039 281.572 106.039C282.75 106.039 283.661 106.42 284.306 107.182C284.95 107.943 285.272 109.001 285.272 110.354V111.11ZM283.796 109.889C283.79 109.057 283.588 108.409 283.189 107.946C282.797 107.483 282.249 107.252 281.546 107.252C280.866 107.252 280.289 107.495 279.814 107.981C279.34 108.468 279.047 109.104 278.936 109.889H283.796ZM293.596 114.837C292.904 115.253 292.084 115.461 291.135 115.461C289.852 115.461 288.814 115.045 288.023 114.213C287.238 113.375 286.846 112.291 286.846 110.961C286.846 109.479 287.271 108.289 288.12 107.393C288.97 106.49 290.104 106.039 291.521 106.039C292.312 106.039 293.01 106.186 293.613 106.479V107.955C292.945 107.486 292.23 107.252 291.469 107.252C290.549 107.252 289.793 107.583 289.201 108.245C288.615 108.901 288.322 109.766 288.322 110.838C288.322 111.893 288.598 112.725 289.148 113.334C289.705 113.943 290.449 114.248 291.381 114.248C292.166 114.248 292.904 113.987 293.596 113.466V114.837Z" fill="black"/>
<path d="M102.781 145.016V149.25H101.469V138.047H104.547C105.745 138.047 106.672 138.339 107.328 138.922C107.99 139.505 108.32 140.328 108.32 141.391C108.32 142.453 107.953 143.323 107.219 144C106.49 144.677 105.503 145.016 104.258 145.016H102.781ZM102.781 139.234V143.828H104.156C105.062 143.828 105.753 143.622 106.227 143.211C106.706 142.794 106.945 142.208 106.945 141.453C106.945 139.974 106.07 139.234 104.32 139.234H102.781ZM113.016 149.438C111.833 149.438 110.888 149.065 110.18 148.32C109.477 147.57 109.125 146.578 109.125 145.344C109.125 144 109.492 142.951 110.227 142.195C110.961 141.44 111.953 141.062 113.203 141.062C114.396 141.062 115.326 141.43 115.992 142.164C116.664 142.898 117 143.917 117 145.219C117 146.495 116.638 147.518 115.914 148.289C115.195 149.055 114.229 149.438 113.016 149.438ZM113.109 142.141C112.286 142.141 111.635 142.422 111.156 142.984C110.677 143.542 110.438 144.312 110.438 145.297C110.438 146.245 110.68 146.992 111.164 147.539C111.648 148.086 112.297 148.359 113.109 148.359C113.938 148.359 114.573 148.091 115.016 147.555C115.464 147.018 115.688 146.255 115.688 145.266C115.688 144.266 115.464 143.495 115.016 142.953C114.573 142.411 113.938 142.141 113.109 142.141ZM119.703 139.219C119.474 139.219 119.279 139.141 119.117 138.984C118.956 138.828 118.875 138.63 118.875 138.391C118.875 138.151 118.956 137.953 119.117 137.797C119.279 137.635 119.474 137.555 119.703 137.555C119.938 137.555 120.135 137.635 120.297 137.797C120.464 137.953 120.547 138.151 120.547 138.391C120.547 138.62 120.464 138.815 120.297 138.977C120.135 139.138 119.938 139.219 119.703 139.219ZM120.328 149.25H119.047V141.25H120.328V149.25ZM129.562 149.25H128.281V144.688C128.281 142.99 127.661 142.141 126.422 142.141C125.781 142.141 125.25 142.383 124.828 142.867C124.411 143.346 124.203 143.953 124.203 144.688V149.25H122.922V141.25H124.203V142.578H124.234C124.839 141.568 125.714 141.062 126.859 141.062C127.734 141.062 128.404 141.346 128.867 141.914C129.331 142.477 129.562 143.292 129.562 144.359V149.25ZM135.695 149.172C135.393 149.339 134.995 149.422 134.5 149.422C133.099 149.422 132.398 148.641 132.398 147.078V142.344H131.023V141.25H132.398V139.297L133.68 138.883V141.25H135.695V142.344H133.68V146.852C133.68 147.388 133.771 147.771 133.953 148C134.135 148.229 134.438 148.344 134.859 148.344C135.182 148.344 135.461 148.255 135.695 148.078V149.172ZM136.922 148.961V147.586C137.62 148.102 138.388 148.359 139.227 148.359C140.352 148.359 140.914 147.984 140.914 147.234C140.914 147.021 140.865 146.841 140.766 146.695C140.672 146.544 140.542 146.411 140.375 146.297C140.214 146.182 140.021 146.081 139.797 145.992C139.578 145.898 139.341 145.802 139.086 145.703C138.732 145.562 138.419 145.422 138.148 145.281C137.883 145.135 137.659 144.974 137.477 144.797C137.299 144.615 137.164 144.409 137.07 144.18C136.982 143.951 136.938 143.682 136.938 143.375C136.938 143 137.023 142.669 137.195 142.383C137.367 142.091 137.596 141.849 137.883 141.656C138.169 141.458 138.495 141.31 138.859 141.211C139.229 141.112 139.609 141.062 140 141.062C140.693 141.062 141.312 141.182 141.859 141.422V142.719C141.271 142.333 140.594 142.141 139.828 142.141C139.589 142.141 139.372 142.169 139.18 142.227C138.987 142.279 138.82 142.354 138.68 142.453C138.544 142.552 138.438 142.672 138.359 142.812C138.286 142.948 138.25 143.099 138.25 143.266C138.25 143.474 138.286 143.648 138.359 143.789C138.438 143.93 138.549 144.055 138.695 144.164C138.841 144.273 139.018 144.372 139.227 144.461C139.435 144.549 139.672 144.646 139.938 144.75C140.292 144.885 140.609 145.026 140.891 145.172C141.172 145.312 141.411 145.474 141.609 145.656C141.807 145.833 141.958 146.039 142.062 146.273C142.172 146.508 142.227 146.786 142.227 147.109C142.227 147.505 142.138 147.849 141.961 148.141C141.789 148.432 141.557 148.674 141.266 148.867C140.974 149.06 140.638 149.203 140.258 149.297C139.878 149.391 139.479 149.438 139.062 149.438C138.24 149.438 137.526 149.279 136.922 148.961ZM144.648 142.812C144.409 142.812 144.203 142.727 144.031 142.555C143.865 142.383 143.781 142.177 143.781 141.938C143.781 141.698 143.865 141.495 144.031 141.328C144.203 141.161 144.409 141.078 144.648 141.078C144.893 141.078 145.102 141.161 145.273 141.328C145.445 141.495 145.531 141.698 145.531 141.938C145.531 142.177 145.445 142.383 145.273 142.555C145.102 142.727 144.893 142.812 144.648 142.812ZM144.648 149.422C144.409 149.422 144.203 149.336 144.031 149.164C143.865 148.992 143.781 148.786 143.781 148.547C143.781 148.307 143.865 148.102 144.031 147.93C144.203 147.753 144.409 147.664 144.648 147.664C144.893 147.664 145.102 147.753 145.273 147.93C145.445 148.102 145.531 148.307 145.531 148.547C145.531 148.786 145.445 148.992 145.273 149.164C145.102 149.336 144.893 149.422 144.648 149.422ZM158.734 143.602C158.734 144.539 158.648 145.37 158.477 146.094C158.31 146.818 158.065 147.43 157.742 147.93C157.424 148.424 157.031 148.802 156.562 149.062C156.099 149.318 155.57 149.445 154.977 149.445C154.414 149.445 153.911 149.323 153.469 149.078C153.031 148.828 152.661 148.466 152.359 147.992C152.057 147.518 151.828 146.938 151.672 146.25C151.516 145.557 151.438 144.766 151.438 143.875C151.438 142.896 151.518 142.031 151.68 141.281C151.846 140.531 152.089 139.904 152.406 139.398C152.724 138.888 153.117 138.505 153.586 138.25C154.06 137.99 154.602 137.859 155.211 137.859C157.56 137.859 158.734 139.773 158.734 143.602ZM157.422 143.727C157.422 140.539 156.664 138.945 155.148 138.945C153.549 138.945 152.75 140.568 152.75 143.812C152.75 146.839 153.534 148.352 155.102 148.352C156.648 148.352 157.422 146.81 157.422 143.727ZM166.281 153.016H165.125V137.016H166.281V153.016ZM172.945 148.797V147.25C173.122 147.406 173.333 147.547 173.578 147.672C173.828 147.797 174.089 147.904 174.359 147.992C174.635 148.076 174.911 148.141 175.188 148.188C175.464 148.234 175.719 148.258 175.953 148.258C176.76 148.258 177.362 148.109 177.758 147.812C178.159 147.51 178.359 147.078 178.359 146.516C178.359 146.214 178.292 145.951 178.156 145.727C178.026 145.503 177.844 145.299 177.609 145.117C177.375 144.93 177.096 144.753 176.773 144.586C176.456 144.414 176.112 144.234 175.742 144.047C175.352 143.849 174.987 143.648 174.648 143.445C174.31 143.242 174.016 143.018 173.766 142.773C173.516 142.529 173.318 142.253 173.172 141.945C173.031 141.633 172.961 141.268 172.961 140.852C172.961 140.341 173.073 139.898 173.297 139.523C173.521 139.143 173.815 138.831 174.18 138.586C174.544 138.341 174.958 138.159 175.422 138.039C175.891 137.919 176.367 137.859 176.852 137.859C177.956 137.859 178.76 137.992 179.266 138.258V139.734C178.604 139.276 177.755 139.047 176.719 139.047C176.432 139.047 176.146 139.078 175.859 139.141C175.573 139.198 175.318 139.294 175.094 139.43C174.87 139.565 174.688 139.74 174.547 139.953C174.406 140.167 174.336 140.427 174.336 140.734C174.336 141.021 174.388 141.268 174.492 141.477C174.602 141.685 174.76 141.875 174.969 142.047C175.177 142.219 175.43 142.385 175.727 142.547C176.029 142.708 176.375 142.885 176.766 143.078C177.167 143.276 177.547 143.484 177.906 143.703C178.266 143.922 178.581 144.164 178.852 144.43C179.122 144.695 179.336 144.99 179.492 145.312C179.654 145.635 179.734 146.005 179.734 146.422C179.734 146.974 179.625 147.443 179.406 147.828C179.193 148.208 178.901 148.518 178.531 148.758C178.167 148.997 177.745 149.169 177.266 149.273C176.786 149.383 176.281 149.438 175.75 149.438C175.573 149.438 175.354 149.422 175.094 149.391C174.833 149.365 174.568 149.323 174.297 149.266C174.026 149.214 173.768 149.148 173.523 149.07C173.284 148.987 173.091 148.896 172.945 148.797ZM184.992 149.172C184.69 149.339 184.292 149.422 183.797 149.422C182.396 149.422 181.695 148.641 181.695 147.078V142.344H180.32V141.25H181.695V139.297L182.977 138.883V141.25H184.992V142.344H182.977V146.852C182.977 147.388 183.068 147.771 183.25 148C183.432 148.229 183.734 148.344 184.156 148.344C184.479 148.344 184.758 148.255 184.992 148.078V149.172ZM190.875 142.547C190.651 142.375 190.328 142.289 189.906 142.289C189.359 142.289 188.901 142.547 188.531 143.062C188.167 143.578 187.984 144.281 187.984 145.172V149.25H186.703V141.25H187.984V142.898H188.016C188.198 142.336 188.477 141.898 188.852 141.586C189.227 141.268 189.646 141.109 190.109 141.109C190.443 141.109 190.698 141.146 190.875 141.219V142.547ZM192.922 139.219C192.693 139.219 192.497 139.141 192.336 138.984C192.174 138.828 192.094 138.63 192.094 138.391C192.094 138.151 192.174 137.953 192.336 137.797C192.497 137.635 192.693 137.555 192.922 137.555C193.156 137.555 193.354 137.635 193.516 137.797C193.682 137.953 193.766 138.151 193.766 138.391C193.766 138.62 193.682 138.815 193.516 138.977C193.354 139.138 193.156 139.219 192.922 139.219ZM193.547 149.25H192.266V141.25H193.547V149.25ZM202.781 149.25H200.984L197.453 145.406H197.422V149.25H196.141V137.406H197.422V144.914H197.453L200.812 141.25H202.492L198.781 145.109L202.781 149.25ZM210.523 145.57H204.875C204.896 146.461 205.135 147.148 205.594 147.633C206.052 148.117 206.682 148.359 207.484 148.359C208.385 148.359 209.214 148.062 209.969 147.469V148.672C209.266 149.182 208.336 149.438 207.18 149.438C206.049 149.438 205.161 149.076 204.516 148.352C203.87 147.622 203.547 146.599 203.547 145.281C203.547 144.036 203.898 143.023 204.602 142.242C205.31 141.456 206.188 141.062 207.234 141.062C208.281 141.062 209.091 141.401 209.664 142.078C210.237 142.755 210.523 143.695 210.523 144.898V145.57ZM209.211 144.484C209.206 143.745 209.026 143.169 208.672 142.758C208.323 142.346 207.836 142.141 207.211 142.141C206.607 142.141 206.094 142.357 205.672 142.789C205.25 143.221 204.99 143.786 204.891 144.484H209.211ZM211.984 148.961V147.586C212.682 148.102 213.451 148.359 214.289 148.359C215.414 148.359 215.977 147.984 215.977 147.234C215.977 147.021 215.927 146.841 215.828 146.695C215.734 146.544 215.604 146.411 215.438 146.297C215.276 146.182 215.083 146.081 214.859 145.992C214.641 145.898 214.404 145.802 214.148 145.703C213.794 145.562 213.482 145.422 213.211 145.281C212.945 145.135 212.721 144.974 212.539 144.797C212.362 144.615 212.227 144.409 212.133 144.18C212.044 143.951 212 143.682 212 143.375C212 143 212.086 142.669 212.258 142.383C212.43 142.091 212.659 141.849 212.945 141.656C213.232 141.458 213.557 141.31 213.922 141.211C214.292 141.112 214.672 141.062 215.062 141.062C215.755 141.062 216.375 141.182 216.922 141.422V142.719C216.333 142.333 215.656 142.141 214.891 142.141C214.651 142.141 214.435 142.169 214.242 142.227C214.049 142.279 213.883 142.354 213.742 142.453C213.607 142.552 213.5 142.672 213.422 142.812C213.349 142.948 213.312 143.099 213.312 143.266C213.312 143.474 213.349 143.648 213.422 143.789C213.5 143.93 213.612 144.055 213.758 144.164C213.904 144.273 214.081 144.372 214.289 144.461C214.497 144.549 214.734 144.646 215 144.75C215.354 144.885 215.672 145.026 215.953 145.172C216.234 145.312 216.474 145.474 216.672 145.656C216.87 145.833 217.021 146.039 217.125 146.273C217.234 146.508 217.289 146.786 217.289 147.109C217.289 147.505 217.201 147.849 217.023 148.141C216.852 148.432 216.62 148.674 216.328 148.867C216.036 149.06 215.701 149.203 215.32 149.297C214.94 149.391 214.542 149.438 214.125 149.438C213.302 149.438 212.589 149.279 211.984 148.961ZM219.711 142.812C219.471 142.812 219.266 142.727 219.094 142.555C218.927 142.383 218.844 142.177 218.844 141.938C218.844 141.698 218.927 141.495 219.094 141.328C219.266 141.161 219.471 141.078 219.711 141.078C219.956 141.078 220.164 141.161 220.336 141.328C220.508 141.495 220.594 141.698 220.594 141.938C220.594 142.177 220.508 142.383 220.336 142.555C220.164 142.727 219.956 142.812 219.711 142.812ZM219.711 149.422C219.471 149.422 219.266 149.336 219.094 149.164C218.927 148.992 218.844 148.786 218.844 148.547C218.844 148.307 218.927 148.102 219.094 147.93C219.266 147.753 219.471 147.664 219.711 147.664C219.956 147.664 220.164 147.753 220.336 147.93C220.508 148.102 220.594 148.307 220.594 148.547C220.594 148.786 220.508 148.992 220.336 149.164C220.164 149.336 219.956 149.422 219.711 149.422ZM233.797 143.602C233.797 144.539 233.711 145.37 233.539 146.094C233.372 146.818 233.128 147.43 232.805 147.93C232.487 148.424 232.094 148.802 231.625 149.062C231.161 149.318 230.633 149.445 230.039 149.445C229.477 149.445 228.974 149.323 228.531 149.078C228.094 148.828 227.724 148.466 227.422 147.992C227.12 147.518 226.891 146.938 226.734 146.25C226.578 145.557 226.5 144.766 226.5 143.875C226.5 142.896 226.581 142.031 226.742 141.281C226.909 140.531 227.151 139.904 227.469 139.398C227.786 138.888 228.18 138.505 228.648 138.25C229.122 137.99 229.664 137.859 230.273 137.859C232.622 137.859 233.797 139.773 233.797 143.602ZM232.484 143.727C232.484 140.539 231.727 138.945 230.211 138.945C228.612 138.945 227.812 140.568 227.812 143.812C227.812 146.839 228.596 148.352 230.164 148.352C231.711 148.352 232.484 146.81 232.484 143.727ZM241.344 153.016H240.188V137.016H241.344V153.016ZM249.844 145.016V149.25H248.531V138.047H251.609C252.807 138.047 253.734 138.339 254.391 138.922C255.052 139.505 255.383 140.328 255.383 141.391C255.383 142.453 255.016 143.323 254.281 144C253.552 144.677 252.565 145.016 251.32 145.016H249.844ZM249.844 139.234V143.828H251.219C252.125 143.828 252.815 143.622 253.289 143.211C253.768 142.794 254.008 142.208 254.008 141.453C254.008 139.974 253.133 139.234 251.383 139.234H249.844ZM262.508 149.25H261.227V148H261.195C260.638 148.958 259.818 149.438 258.734 149.438C257.938 149.438 257.312 149.227 256.859 148.805C256.411 148.383 256.188 147.823 256.188 147.125C256.188 145.63 257.068 144.76 258.828 144.516L261.227 144.18C261.227 142.82 260.677 142.141 259.578 142.141C258.615 142.141 257.745 142.469 256.969 143.125V141.812C257.755 141.312 258.661 141.062 259.688 141.062C261.568 141.062 262.508 142.057 262.508 144.047V149.25ZM261.227 145.203L259.297 145.469C258.703 145.552 258.255 145.701 257.953 145.914C257.651 146.122 257.5 146.495 257.5 147.031C257.5 147.422 257.638 147.742 257.914 147.992C258.195 148.237 258.568 148.359 259.031 148.359C259.667 148.359 260.19 148.138 260.602 147.695C261.018 147.247 261.227 146.682 261.227 146V145.203ZM264.438 148.961V147.586C265.135 148.102 265.904 148.359 266.742 148.359C267.867 148.359 268.43 147.984 268.43 147.234C268.43 147.021 268.38 146.841 268.281 146.695C268.188 146.544 268.057 146.411 267.891 146.297C267.729 146.182 267.536 146.081 267.312 145.992C267.094 145.898 266.857 145.802 266.602 145.703C266.247 145.562 265.935 145.422 265.664 145.281C265.398 145.135 265.174 144.974 264.992 144.797C264.815 144.615 264.68 144.409 264.586 144.18C264.497 143.951 264.453 143.682 264.453 143.375C264.453 143 264.539 142.669 264.711 142.383C264.883 142.091 265.112 141.849 265.398 141.656C265.685 141.458 266.01 141.31 266.375 141.211C266.745 141.112 267.125 141.062 267.516 141.062C268.208 141.062 268.828 141.182 269.375 141.422V142.719C268.786 142.333 268.109 142.141 267.344 142.141C267.104 142.141 266.888 142.169 266.695 142.227C266.503 142.279 266.336 142.354 266.195 142.453C266.06 142.552 265.953 142.672 265.875 142.812C265.802 142.948 265.766 143.099 265.766 143.266C265.766 143.474 265.802 143.648 265.875 143.789C265.953 143.93 266.065 144.055 266.211 144.164C266.357 144.273 266.534 144.372 266.742 144.461C266.951 144.549 267.188 144.646 267.453 144.75C267.807 144.885 268.125 145.026 268.406 145.172C268.688 145.312 268.927 145.474 269.125 145.656C269.323 145.833 269.474 146.039 269.578 146.273C269.688 146.508 269.742 146.786 269.742 147.109C269.742 147.505 269.654 147.849 269.477 148.141C269.305 148.432 269.073 148.674 268.781 148.867C268.49 149.06 268.154 149.203 267.773 149.297C267.393 149.391 266.995 149.438 266.578 149.438C265.755 149.438 265.042 149.279 264.438 148.961ZM271.234 148.961V147.586C271.932 148.102 272.701 148.359 273.539 148.359C274.664 148.359 275.227 147.984 275.227 147.234C275.227 147.021 275.177 146.841 275.078 146.695C274.984 146.544 274.854 146.411 274.688 146.297C274.526 146.182 274.333 146.081 274.109 145.992C273.891 145.898 273.654 145.802 273.398 145.703C273.044 145.562 272.732 145.422 272.461 145.281C272.195 145.135 271.971 144.974 271.789 144.797C271.612 144.615 271.477 144.409 271.383 144.18C271.294 143.951 271.25 143.682 271.25 143.375C271.25 143 271.336 142.669 271.508 142.383C271.68 142.091 271.909 141.849 272.195 141.656C272.482 141.458 272.807 141.31 273.172 141.211C273.542 141.112 273.922 141.062 274.312 141.062C275.005 141.062 275.625 141.182 276.172 141.422V142.719C275.583 142.333 274.906 142.141 274.141 142.141C273.901 142.141 273.685 142.169 273.492 142.227C273.299 142.279 273.133 142.354 272.992 142.453C272.857 142.552 272.75 142.672 272.672 142.812C272.599 142.948 272.562 143.099 272.562 143.266C272.562 143.474 272.599 143.648 272.672 143.789C272.75 143.93 272.862 144.055 273.008 144.164C273.154 144.273 273.331 144.372 273.539 144.461C273.747 144.549 273.984 144.646 274.25 144.75C274.604 144.885 274.922 145.026 275.203 145.172C275.484 145.312 275.724 145.474 275.922 145.656C276.12 145.833 276.271 146.039 276.375 146.273C276.484 146.508 276.539 146.786 276.539 147.109C276.539 147.505 276.451 147.849 276.273 148.141C276.102 148.432 275.87 148.674 275.578 148.867C275.286 149.06 274.951 149.203 274.57 149.297C274.19 149.391 273.792 149.438 273.375 149.438C272.552 149.438 271.839 149.279 271.234 148.961ZM284.945 145.57H279.297C279.318 146.461 279.557 147.148 280.016 147.633C280.474 148.117 281.104 148.359 281.906 148.359C282.807 148.359 283.635 148.062 284.391 147.469V148.672C283.688 149.182 282.758 149.438 281.602 149.438C280.471 149.438 279.583 149.076 278.938 148.352C278.292 147.622 277.969 146.599 277.969 145.281C277.969 144.036 278.32 143.023 279.023 142.242C279.732 141.456 280.609 141.062 281.656 141.062C282.703 141.062 283.513 141.401 284.086 142.078C284.659 142.755 284.945 143.695 284.945 144.898V145.57ZM283.633 144.484C283.628 143.745 283.448 143.169 283.094 142.758C282.745 142.346 282.258 142.141 281.633 142.141C281.029 142.141 280.516 142.357 280.094 142.789C279.672 143.221 279.411 143.786 279.312 144.484H283.633ZM286.406 148.961V147.586C287.104 148.102 287.872 148.359 288.711 148.359C289.836 148.359 290.398 147.984 290.398 147.234C290.398 147.021 290.349 146.841 290.25 146.695C290.156 146.544 290.026 146.411 289.859 146.297C289.698 146.182 289.505 146.081 289.281 145.992C289.062 145.898 288.826 145.802 288.57 145.703C288.216 145.562 287.904 145.422 287.633 145.281C287.367 145.135 287.143 144.974 286.961 144.797C286.784 144.615 286.648 144.409 286.555 144.18C286.466 143.951 286.422 143.682 286.422 143.375C286.422 143 286.508 142.669 286.68 142.383C286.852 142.091 287.081 141.849 287.367 141.656C287.654 141.458 287.979 141.31 288.344 141.211C288.714 141.112 289.094 141.062 289.484 141.062C290.177 141.062 290.797 141.182 291.344 141.422V142.719C290.755 142.333 290.078 142.141 289.312 142.141C289.073 142.141 288.857 142.169 288.664 142.227C288.471 142.279 288.305 142.354 288.164 142.453C288.029 142.552 287.922 142.672 287.844 142.812C287.771 142.948 287.734 143.099 287.734 143.266C287.734 143.474 287.771 143.648 287.844 143.789C287.922 143.93 288.034 144.055 288.18 144.164C288.326 144.273 288.503 144.372 288.711 144.461C288.919 144.549 289.156 144.646 289.422 144.75C289.776 144.885 290.094 145.026 290.375 145.172C290.656 145.312 290.896 145.474 291.094 145.656C291.292 145.833 291.443 146.039 291.547 146.273C291.656 146.508 291.711 146.786 291.711 147.109C291.711 147.505 291.622 147.849 291.445 148.141C291.273 148.432 291.042 148.674 290.75 148.867C290.458 149.06 290.122 149.203 289.742 149.297C289.362 149.391 288.964 149.438 288.547 149.438C287.724 149.438 287.01 149.279 286.406 148.961ZM294.133 142.812C293.893 142.812 293.688 142.727 293.516 142.555C293.349 142.383 293.266 142.177 293.266 141.938C293.266 141.698 293.349 141.495 293.516 141.328C293.688 141.161 293.893 141.078 294.133 141.078C294.378 141.078 294.586 141.161 294.758 141.328C294.93 141.495 295.016 141.698 295.016 141.938C295.016 142.177 294.93 142.383 294.758 142.555C294.586 142.727 294.378 142.812 294.133 142.812ZM294.133 149.422C293.893 149.422 293.688 149.336 293.516 149.164C293.349 148.992 293.266 148.786 293.266 148.547C293.266 148.307 293.349 148.102 293.516 147.93C293.688 147.753 293.893 147.664 294.133 147.664C294.378 147.664 294.586 147.753 294.758 147.93C294.93 148.102 295.016 148.307 295.016 148.547C295.016 148.786 294.93 148.992 294.758 149.164C294.586 149.336 294.378 149.422 294.133 149.422ZM307.695 146.078C307.695 146.583 307.599 147.044 307.406 147.461C307.219 147.872 306.951 148.227 306.602 148.523C306.258 148.815 305.844 149.042 305.359 149.203C304.875 149.365 304.341 149.445 303.758 149.445C302.69 149.445 301.841 149.242 301.211 148.836V147.461C301.966 148.055 302.831 148.352 303.805 148.352C304.195 148.352 304.547 148.302 304.859 148.203C305.177 148.104 305.448 147.961 305.672 147.773C305.901 147.586 306.076 147.359 306.195 147.094C306.32 146.828 306.383 146.529 306.383 146.195C306.383 144.732 305.341 144 303.258 144H302.328V142.914H303.211C305.055 142.914 305.977 142.227 305.977 140.852C305.977 139.581 305.273 138.945 303.867 138.945C303.076 138.945 302.333 139.211 301.641 139.742V138.5C302.354 138.073 303.203 137.859 304.188 137.859C304.656 137.859 305.081 137.924 305.461 138.055C305.841 138.185 306.167 138.367 306.438 138.602C306.708 138.836 306.917 139.117 307.062 139.445C307.214 139.773 307.289 140.135 307.289 140.531C307.289 142.005 306.544 142.953 305.055 143.375V143.406C305.435 143.448 305.786 143.542 306.109 143.688C306.432 143.828 306.711 144.013 306.945 144.242C307.18 144.471 307.362 144.742 307.492 145.055C307.628 145.362 307.695 145.703 307.695 146.078Z" fill="black"/>
<rect x="97" y="171.75" width="215" height="42" rx="3" fill="white"/>
<rect x="97" y="171.75" width="215" height="42" rx="3" stroke="#D1D5DB" stroke-width="2"/>
<rect x="130" y="230.75" width="76" height="40" rx="4" fill="#3B82F6"/>
<path d="M156.57 257C155.477 257.63 154.117 257.945 152.492 257.945C150.69 257.945 149.268 257.448 148.227 256.453C147.19 255.453 146.672 254.078 146.672 252.328C146.672 250.568 147.24 249.133 148.375 248.023C149.51 246.914 151.021 246.359 152.906 246.359C154.094 246.359 155.141 246.523 156.047 246.852V249.219C155.182 248.719 154.125 248.469 152.875 248.469C151.828 248.469 150.974 248.81 150.312 249.492C149.656 250.169 149.328 251.076 149.328 252.211C149.328 253.362 149.622 254.253 150.211 254.883C150.805 255.513 151.604 255.828 152.609 255.828C153.214 255.828 153.693 255.742 154.047 255.57V253.383H151.805V251.367H156.57V257ZM166.109 257.75H163.648V256.531H163.609C163 257.474 162.185 257.945 161.164 257.945C159.31 257.945 158.383 256.823 158.383 254.578V249.75H160.844V254.359C160.844 255.49 161.292 256.055 162.188 256.055C162.63 256.055 162.984 255.901 163.25 255.594C163.516 255.281 163.648 254.859 163.648 254.328V249.75H166.109V257.75ZM175.383 254.453H170.164C170.247 255.615 170.979 256.195 172.359 256.195C173.24 256.195 174.013 255.987 174.68 255.57V257.352C173.94 257.747 172.979 257.945 171.797 257.945C170.505 257.945 169.503 257.589 168.789 256.875C168.076 256.156 167.719 255.156 167.719 253.875C167.719 252.547 168.104 251.495 168.875 250.719C169.646 249.943 170.594 249.555 171.719 249.555C172.885 249.555 173.786 249.901 174.422 250.594C175.062 251.286 175.383 252.227 175.383 253.414V254.453ZM173.094 252.938C173.094 251.792 172.63 251.219 171.703 251.219C171.307 251.219 170.964 251.383 170.672 251.711C170.385 252.039 170.211 252.448 170.148 252.938H173.094ZM176.328 257.539V255.539C176.734 255.784 177.138 255.966 177.539 256.086C177.945 256.206 178.328 256.266 178.688 256.266C179.125 256.266 179.469 256.206 179.719 256.086C179.974 255.966 180.102 255.784 180.102 255.539C180.102 255.383 180.044 255.253 179.93 255.148C179.815 255.044 179.667 254.953 179.484 254.875C179.307 254.797 179.112 254.727 178.898 254.664C178.685 254.602 178.479 254.531 178.281 254.453C177.964 254.333 177.682 254.206 177.438 254.07C177.198 253.93 176.995 253.768 176.828 253.586C176.667 253.404 176.542 253.193 176.453 252.953C176.37 252.714 176.328 252.43 176.328 252.102C176.328 251.654 176.424 251.268 176.617 250.945C176.815 250.622 177.076 250.359 177.398 250.156C177.727 249.948 178.099 249.797 178.516 249.703C178.938 249.604 179.375 249.555 179.828 249.555C180.182 249.555 180.542 249.583 180.906 249.641C181.271 249.693 181.63 249.771 181.984 249.875V251.781C181.672 251.599 181.336 251.464 180.977 251.375C180.622 251.281 180.273 251.234 179.93 251.234C179.768 251.234 179.615 251.25 179.469 251.281C179.328 251.307 179.203 251.349 179.094 251.406C178.984 251.458 178.898 251.529 178.836 251.617C178.773 251.701 178.742 251.797 178.742 251.906C178.742 252.052 178.789 252.177 178.883 252.281C178.977 252.385 179.099 252.477 179.25 252.555C179.401 252.628 179.568 252.695 179.75 252.758C179.938 252.815 180.122 252.875 180.305 252.938C180.633 253.052 180.93 253.177 181.195 253.312C181.461 253.448 181.688 253.607 181.875 253.789C182.068 253.971 182.214 254.185 182.312 254.43C182.417 254.674 182.469 254.966 182.469 255.305C182.469 255.779 182.365 256.185 182.156 256.523C181.953 256.857 181.68 257.13 181.336 257.344C180.997 257.552 180.604 257.703 180.156 257.797C179.714 257.896 179.253 257.945 178.773 257.945C177.893 257.945 177.078 257.81 176.328 257.539ZM183.375 257.539V255.539C183.781 255.784 184.185 255.966 184.586 256.086C184.992 256.206 185.375 256.266 185.734 256.266C186.172 256.266 186.516 256.206 186.766 256.086C187.021 255.966 187.148 255.784 187.148 255.539C187.148 255.383 187.091 255.253 186.977 255.148C186.862 255.044 186.714 254.953 186.531 254.875C186.354 254.797 186.159 254.727 185.945 254.664C185.732 254.602 185.526 254.531 185.328 254.453C185.01 254.333 184.729 254.206 184.484 254.07C184.245 253.93 184.042 253.768 183.875 253.586C183.714 253.404 183.589 253.193 183.5 252.953C183.417 252.714 183.375 252.43 183.375 252.102C183.375 251.654 183.471 251.268 183.664 250.945C183.862 250.622 184.122 250.359 184.445 250.156C184.773 249.948 185.146 249.797 185.562 249.703C185.984 249.604 186.422 249.555 186.875 249.555C187.229 249.555 187.589 249.583 187.953 249.641C188.318 249.693 188.677 249.771 189.031 249.875V251.781C188.719 251.599 188.383 251.464 188.023 251.375C187.669 251.281 187.32 251.234 186.977 251.234C186.815 251.234 186.661 251.25 186.516 251.281C186.375 251.307 186.25 251.349 186.141 251.406C186.031 251.458 185.945 251.529 185.883 251.617C185.82 251.701 185.789 251.797 185.789 251.906C185.789 252.052 185.836 252.177 185.93 252.281C186.023 252.385 186.146 252.477 186.297 252.555C186.448 252.628 186.615 252.695 186.797 252.758C186.984 252.815 187.169 252.875 187.352 252.938C187.68 253.052 187.977 253.177 188.242 253.312C188.508 253.448 188.734 253.607 188.922 253.789C189.115 253.971 189.26 254.185 189.359 254.43C189.464 254.674 189.516 254.966 189.516 255.305C189.516 255.779 189.411 256.185 189.203 256.523C189 256.857 188.727 257.13 188.383 257.344C188.044 257.552 187.651 257.703 187.203 257.797C186.76 257.896 186.299 257.945 185.82 257.945C184.94 257.945 184.125 257.81 183.375 257.539Z" fill="white"/>
<rect x="214" y="230.75" width="65" height="40" rx="4" fill="#EF4444"/>
<path d="M234.242 253.891V257.75H231.719V246.547H235.672C238.495 246.547 239.906 247.737 239.906 250.117C239.906 251.242 239.5 252.154 238.688 252.852C237.88 253.544 236.799 253.891 235.445 253.891H234.242ZM234.242 248.484V251.977H235.234C236.578 251.977 237.25 251.388 237.25 250.211C237.25 249.06 236.578 248.484 235.234 248.484H234.242ZM247.555 257.75H245.219V256.602H245.188C244.651 257.497 243.857 257.945 242.805 257.945C242.029 257.945 241.417 257.727 240.969 257.289C240.526 256.846 240.305 256.258 240.305 255.523C240.305 253.971 241.224 253.076 243.062 252.836L245.234 252.547C245.234 251.672 244.76 251.234 243.812 251.234C242.859 251.234 241.953 251.518 241.094 252.086V250.227C241.438 250.049 241.906 249.893 242.5 249.758C243.099 249.622 243.643 249.555 244.133 249.555C246.414 249.555 247.555 250.693 247.555 252.969V257.75ZM245.234 254.5V253.961L243.781 254.148C242.979 254.253 242.578 254.615 242.578 255.234C242.578 255.516 242.674 255.747 242.867 255.93C243.065 256.107 243.331 256.195 243.664 256.195C244.128 256.195 244.505 256.036 244.797 255.719C245.089 255.396 245.234 254.99 245.234 254.5ZM248.984 257.539V255.539C249.391 255.784 249.794 255.966 250.195 256.086C250.602 256.206 250.984 256.266 251.344 256.266C251.781 256.266 252.125 256.206 252.375 256.086C252.63 255.966 252.758 255.784 252.758 255.539C252.758 255.383 252.701 255.253 252.586 255.148C252.471 255.044 252.323 254.953 252.141 254.875C251.964 254.797 251.768 254.727 251.555 254.664C251.341 254.602 251.135 254.531 250.938 254.453C250.62 254.333 250.339 254.206 250.094 254.07C249.854 253.93 249.651 253.768 249.484 253.586C249.323 253.404 249.198 253.193 249.109 252.953C249.026 252.714 248.984 252.43 248.984 252.102C248.984 251.654 249.081 251.268 249.273 250.945C249.471 250.622 249.732 250.359 250.055 250.156C250.383 249.948 250.755 249.797 251.172 249.703C251.594 249.604 252.031 249.555 252.484 249.555C252.839 249.555 253.198 249.583 253.562 249.641C253.927 249.693 254.286 249.771 254.641 249.875V251.781C254.328 251.599 253.992 251.464 253.633 251.375C253.279 251.281 252.93 251.234 252.586 251.234C252.424 251.234 252.271 251.25 252.125 251.281C251.984 251.307 251.859 251.349 251.75 251.406C251.641 251.458 251.555 251.529 251.492 251.617C251.43 251.701 251.398 251.797 251.398 251.906C251.398 252.052 251.445 252.177 251.539 252.281C251.633 252.385 251.755 252.477 251.906 252.555C252.057 252.628 252.224 252.695 252.406 252.758C252.594 252.815 252.779 252.875 252.961 252.938C253.289 253.052 253.586 253.177 253.852 253.312C254.117 253.448 254.344 253.607 254.531 253.789C254.724 253.971 254.87 254.185 254.969 254.43C255.073 254.674 255.125 254.966 255.125 255.305C255.125 255.779 255.021 256.185 254.812 256.523C254.609 256.857 254.336 257.13 253.992 257.344C253.654 257.552 253.26 257.703 252.812 257.797C252.37 257.896 251.909 257.945 251.43 257.945C250.549 257.945 249.734 257.81 248.984 257.539ZM256.031 257.539V255.539C256.438 255.784 256.841 255.966 257.242 256.086C257.648 256.206 258.031 256.266 258.391 256.266C258.828 256.266 259.172 256.206 259.422 256.086C259.677 255.966 259.805 255.784 259.805 255.539C259.805 255.383 259.747 255.253 259.633 255.148C259.518 255.044 259.37 254.953 259.188 254.875C259.01 254.797 258.815 254.727 258.602 254.664C258.388 254.602 258.182 254.531 257.984 254.453C257.667 254.333 257.385 254.206 257.141 254.07C256.901 253.93 256.698 253.768 256.531 253.586C256.37 253.404 256.245 253.193 256.156 252.953C256.073 252.714 256.031 252.43 256.031 252.102C256.031 251.654 256.128 251.268 256.32 250.945C256.518 250.622 256.779 250.359 257.102 250.156C257.43 249.948 257.802 249.797 258.219 249.703C258.641 249.604 259.078 249.555 259.531 249.555C259.885 249.555 260.245 249.583 260.609 249.641C260.974 249.693 261.333 249.771 261.688 249.875V251.781C261.375 251.599 261.039 251.464 260.68 251.375C260.326 251.281 259.977 251.234 259.633 251.234C259.471 251.234 259.318 251.25 259.172 251.281C259.031 251.307 258.906 251.349 258.797 251.406C258.688 251.458 258.602 251.529 258.539 251.617C258.477 251.701 258.445 251.797 258.445 251.906C258.445 252.052 258.492 252.177 258.586 252.281C258.68 252.385 258.802 252.477 258.953 252.555C259.104 252.628 259.271 252.695 259.453 252.758C259.641 252.815 259.826 252.875 260.008 252.938C260.336 253.052 260.633 253.177 260.898 253.312C261.164 253.448 261.391 253.607 261.578 253.789C261.771 253.971 261.917 254.185 262.016 254.43C262.12 254.674 262.172 254.966 262.172 255.305C262.172 255.779 262.068 256.185 261.859 256.523C261.656 256.857 261.383 257.13 261.039 257.344C260.701 257.552 260.307 257.703 259.859 257.797C259.417 257.896 258.956 257.945 258.477 257.945C257.596 257.945 256.781 257.81 256.031 257.539Z" fill="white"/>
</svg>
